<svg width="21" height="21" viewBox="0 0 21 21" fill="none" xmlns="http://www.w3.org/2000/svg">
<path fill-rule="evenodd" clip-rule="evenodd" d="M20.5 10.5C20.5 16.0228 16.0228 20.5 10.5 20.5C4.97715 20.5 0.5 16.0228 0.5 10.5C0.5 4.97715 4.97715 0.5 10.5 0.5C16.0228 0.5 20.5 4.97715 20.5 10.5ZM11.75 5.5C11.75 6.19036 11.1904 6.75 10.5 6.75C9.80964 6.75 9.25 6.19036 9.25 5.5C9.25 4.80964 9.80964 4.25 10.5 4.25C11.1904 4.25 11.75 4.80964 11.75 5.5ZM9.25 9.25C8.55964 9.25 8 9.80964 8 10.5C8 11.1904 8.55964 11.75 9.25 11.75V15.5C9.25 16.1904 9.80964 16.75 10.5 16.75H11.75C12.4404 16.75 13 16.1904 13 15.5C13 14.8096 12.4404 14.25 11.75 14.25V10.5C11.75 9.80964 11.1904 9.25 10.5 9.25H9.25Z" fill="#0C0F19"/>
</svg>
