<svg width="241" height="115" viewBox="0 0 241 115" fill="none" xmlns="http://www.w3.org/2000/svg">
<path d="M78.6972 0C72.7176 0 67.8701 4.84748 67.8701 10.8271V54.1357C67.8701 60.1153 72.7176 64.9628 78.6972 64.9628H143.66C149.64 64.9628 154.487 60.1153 154.487 54.1357V43.3078C154.487 43.3078 154.488 43.3078 154.487 43.3078H138.245C132.266 43.3078 127.418 38.4603 127.418 32.4806C127.418 26.501 132.266 21.6535 138.245 21.6535H154.486C154.486 21.6535 154.486 21.6535 154.486 21.6535L154.487 10.8271C154.487 4.84748 149.64 0 143.66 0H78.6972Z" fill="#1D7789"/>
<circle cx="138.237" cy="32.4808" r="5.41357" fill="#1D7789"/>
<circle cx="48.6707" cy="60.9597" r="27.7098" fill="#005741"/>
<path fill-rule="evenodd" clip-rule="evenodd" d="M76.1186 64.6525C76.2797 63.4438 76.3628 62.2105 76.3628 60.9578C76.3628 53.1074 73.0982 46.0195 67.8525 40.9775V54.13C67.8525 59.2274 71.375 63.502 76.1186 64.6525Z" fill="#D4FF5C"/>
<rect x="119.322" y="54.031" width="88.6713" height="27.7098" rx="4" fill="#00946E"/>
<rect x="119.322" y="87.2905" width="88.6713" height="27.7098" rx="4" fill="#005741"/>
<path fill-rule="evenodd" clip-rule="evenodd" d="M154.473 54.0316H123.319C121.11 54.0316 119.319 55.8225 119.319 58.0316V64.9635H143.646C149.626 64.9635 154.473 60.116 154.473 54.1363V54.0316Z" fill="#00DDA5"/>
<path fill-rule="evenodd" clip-rule="evenodd" d="M134.562 74.8168C138.388 74.8168 141.49 71.7153 141.49 67.8894C141.49 64.0634 138.388 60.9619 134.562 60.9619C130.736 60.9619 127.635 64.0634 127.635 67.8894C127.635 71.7153 130.736 74.8168 134.562 74.8168ZM137.772 66.7698C138.11 66.4316 138.11 65.8834 137.772 65.5452C137.434 65.207 136.886 65.207 136.548 65.5452L133.696 68.3966L132.577 67.2771C132.239 66.9389 131.69 66.9389 131.352 67.2771C131.014 67.6152 131.014 68.1635 131.352 68.5017L133.084 70.2335C133.422 70.5717 133.97 70.5717 134.309 70.2335L137.772 66.7698Z" fill="#00DDA5"/>
<path fill-rule="evenodd" clip-rule="evenodd" d="M134.562 108.068C138.388 108.068 141.49 104.966 141.49 101.14C141.49 97.3142 138.388 94.2126 134.562 94.2126C130.736 94.2126 127.635 97.3142 127.635 101.14C127.635 104.966 130.736 108.068 134.562 108.068ZM131.964 100.274H130.233V102.006H131.964V100.274ZM138.892 100.274H137.16V102.006H138.892V100.274ZM133.696 100.274H135.428V102.006H133.696V100.274Z" fill="#00946E"/>
<path fill-rule="evenodd" clip-rule="evenodd" d="M140.845 64.9664C139.743 62.5996 137.344 60.959 134.561 60.959C131.778 60.959 129.379 62.5996 128.277 64.9664H140.845Z" fill="#D4FF5C"/>
<path d="M6.57134 90.2855V88C6.57134 87.4477 6.12362 87 5.57134 87L4.28566 87C3.73338 87 3.28566 87.4477 3.28566 88L3.28566 90.2855H1C0.447716 90.2855 0 90.7333 0 91.2855V92.5712C0 93.1235 0.447715 93.5712 1 93.5712H3.28566L3.28566 95.857C3.28566 96.4093 3.73338 96.857 4.28566 96.857H5.57134C6.12362 96.857 6.57134 96.4093 6.57134 95.857V93.5712H8.85702C9.40931 93.5712 9.85702 93.1235 9.85702 92.5712V91.2855C9.85702 90.7333 9.40931 90.2855 8.85702 90.2855H6.57134Z" fill="#D4FF5C"/>
<path d="M198.389 18.6454C198.955 18.9723 198.955 19.7895 198.389 20.1164L192.274 23.6468C191.708 23.9736 191 23.565 191 22.9113L191 15.8505C191 15.1968 191.708 14.7882 192.274 15.115L198.389 18.6454Z" fill="#D4FF5C"/>
<rect x="234.195" y="48" width="8.7618" height="8.7618" rx="1" transform="rotate(45 234.195 48)" fill="#1D7789"/>
<path d="M55.8034 66.2218V69.4122H42.6417C42.8233 67.3125 43.5008 65.835 45.844 63.7576L55.8034 55.2612V62.7169H59.3885V49H39.0026V55.8374H42.5878V52.5851H53.4181L43.5074 61.0434L43.4837 61.0658C39.3302 64.743 39 67.7111 39 71.2081V73H59.3899V66.2244H55.8047L55.8034 66.2218Z" fill="#00DDA5"/>
</svg>
