<svg width="219" height="125" viewBox="0 0 219 125" fill="none" xmlns="http://www.w3.org/2000/svg">
<rect x="88.7773" width="66.8041" height="66.8041" rx="5" fill="#1D7789"/>
<rect x="55.3818" y="33.3988" width="66.8041" height="66.8041" rx="5" fill="#005741"/>
<path fill-rule="evenodd" clip-rule="evenodd" d="M122.184 66.8131H93.7842C91.0228 66.8131 88.7842 64.5746 88.7842 61.8131V33.4078H117.184C119.945 33.4078 122.184 35.6464 122.184 38.4078V66.8131Z" fill="#00DDA5"/>
<path fill-rule="evenodd" clip-rule="evenodd" d="M163.332 25.1062C159.228 25.1062 155.901 28.4335 155.901 32.5379C155.901 36.6423 159.228 39.9695 163.332 39.9695C167.437 39.9695 170.764 36.6423 170.764 32.5379C170.764 28.4335 167.437 25.1062 163.332 25.1062ZM163.332 56.8146C176.74 56.8146 187.609 45.9456 187.609 32.5379C187.609 19.1302 176.74 8.26111 163.332 8.26111C149.925 8.26111 139.056 19.1302 139.056 32.5379C139.056 45.9456 149.925 56.8146 163.332 56.8146Z" fill="#00BC8D"/>
<path fill-rule="evenodd" clip-rule="evenodd" d="M155.587 9.52661V55.5528C145.98 52.3184 139.062 43.237 139.062 32.5397C139.062 21.8424 145.98 12.7611 155.587 9.52661Z" fill="#D4FF5C"/>
<path d="M47.0289 69.0777L47.0289 85.8941L35.1381 74.0034C34.385 73.2503 33.1641 73.2503 32.411 74.0034L29.1748 77.2396C28.4217 77.9926 28.4217 79.2136 29.1748 79.9667L41.0661 91.858H24.2487C23.1837 91.858 22.3203 92.7213 22.3203 93.7864V98.363C22.3203 99.4281 23.1837 100.291 24.2487 100.291H41.0656L29.174 112.183C28.4209 112.936 28.4209 114.157 29.174 114.91L32.4102 118.146C33.1632 118.899 34.3842 118.899 35.1373 118.146L47.0289 106.255L47.0289 123.072C47.0289 124.137 47.8922 125 48.9572 125H53.5339C54.5989 125 55.4623 124.137 55.4623 123.072V106.254L67.3545 118.146C68.1076 118.899 69.3285 118.899 70.0816 118.146L73.3178 114.91C74.0709 114.157 74.0709 112.936 73.3178 112.183L61.4262 100.291H78.243C79.308 100.291 80.1713 99.4281 80.1713 98.363V93.7864C80.1713 92.7213 79.308 91.858 78.243 91.858H61.4257L73.317 79.9666C74.0701 79.2135 74.0701 77.9926 73.317 77.2395L70.0808 74.0033C69.3277 73.2502 68.1068 73.2502 67.3537 74.0033L55.4623 85.8947V69.0777C55.4623 68.0127 54.599 67.1493 53.5339 67.1493H48.9572C47.8922 67.1493 47.0289 68.0127 47.0289 69.0777Z" fill="#D4FF5C"/>
<path fill-rule="evenodd" clip-rule="evenodd" d="M78.8146 100.203H60.3818C57.6204 100.203 55.3818 97.9641 55.3818 95.2026V68.5155C55.4353 68.6924 55.4641 68.8801 55.4641 69.0745V85.8915L67.3555 74.0001C68.1085 73.247 69.3295 73.247 70.0826 74.0001L73.3188 77.2363C74.0719 77.9894 74.0719 79.2104 73.3188 79.9634L61.4274 91.8548H78.2448C79.3098 91.8548 80.1731 92.7182 80.1731 93.7832V98.3599C80.1731 99.2265 79.6014 99.9596 78.8146 100.203Z" fill="#00BC8D"/>
<path d="M165.069 100.895C165.069 100.402 164.669 100.002 164.176 100.002H161.891C161.397 100.002 160.998 100.402 160.998 100.895V104.752H157.141C156.648 104.752 156.248 105.151 156.248 105.644L156.248 107.93C156.248 108.423 156.648 108.823 157.141 108.823H160.998V112.68C160.998 113.173 161.397 113.573 161.891 113.573H164.176C164.669 113.573 165.069 113.173 165.069 112.68V108.823H168.926C169.42 108.823 169.819 108.423 169.819 107.93V105.644C169.819 105.151 169.42 104.752 168.926 104.752L165.069 104.752V100.895Z" fill="#00BC8D"/>
<circle cx="209.765" cy="66.9083" r="5.87351" stroke="#D4FF5C" stroke-width="6"/>
<path d="M13.2139 18.5944C13.5963 18.7449 13.8477 19.114 13.8477 19.525L13.8477 22.5519C13.8477 22.9629 13.5963 23.332 13.2139 23.4825L1.36741 28.1451C0.711301 28.4034 0.00116832 27.9197 0.00116838 27.2146L0.00116859 24.7905C0.00116863 24.3623 0.273836 23.9816 0.679274 23.8437L8.70266 21.1158C8.74127 21.1027 8.77442 21.1462 8.75153 21.18C8.72801 21.2146 8.67383 21.198 8.67383 21.1561L8.67383 20.9208C8.67383 20.8789 8.72801 20.8623 8.75153 20.8969C8.77442 20.9307 8.74127 20.9742 8.70266 20.9611L0.679275 18.2332C0.273836 18.0953 0.00116921 17.7146 0.00116925 17.2864L0.00116946 14.8623C0.00116952 14.1572 0.711303 13.6735 1.36741 13.9318L13.2139 18.5944Z" fill="#D4FF5C"/>
<path d="M0.633755 31.9873C0.251382 32.1378 -8.36534e-07 32.5069 -8.0061e-07 32.9178L-5.35982e-07 35.9448C-5.00058e-07 36.3557 0.251383 36.7248 0.633756 36.8753L12.4802 41.5379C13.1364 41.7962 13.8465 41.3125 13.8465 40.6074L13.8465 38.1833C13.8465 37.7551 13.5738 37.3744 13.1684 37.2365L5.14499 34.5087C5.10638 34.4955 5.07323 34.539 5.09613 34.5728C5.11964 34.6074 5.17382 34.5908 5.17382 34.5489L5.17382 34.3136C5.17382 34.2717 5.11964 34.2551 5.09613 34.2898C5.07323 34.3235 5.10638 34.367 5.14499 34.3539L13.1684 31.626C13.5738 31.4882 13.8465 31.1075 13.8465 30.6792L13.8465 28.2551C13.8465 27.55 13.1364 27.0664 12.4802 27.3246L0.633755 31.9873Z" fill="#007457"/>
</svg>
